HIERARCHY
ROOT Hips
{
	OFFSET 0.0 0.9873459935188293 0.0
	CHANNELS 6 Xposition Yposition Zposition Zrotation Yrotation Xrotation
	JOINT LeftUpperLeg
	{
		OFFSET 0.05442648380994797 -0.1202470064163208 -0.010071414522826672
		CHANNELS 3 Zrotation Yrotation Xrotation
		JOINT LeftLowerLeg
		{
			OFFSET 0.08043769747018814 -0.4895855784416199 0.014373186975717545
			CHANNELS 3 Zrotation Yrotation Xrotation
			JOINT LeftFoot
			{
				OFFSET -0.004680849611759186 -0.9205548167228699 0.009911485016345978
				CHANNELS 3 Zrotation Yrotation Xrotation
				JOINT LeftToe
				{
					OFFSET 0.05180229991674423 -0.9753370136022568 0.1283368468284607
					CHANNELS 3 Zrotation Yrotation Xrotation
					End Site
					{
						OFFSET 0 0 0
					}
				}
			}
		}
	}
	JOINT RightUpperLeg
	{
		OFFSET -0.06814553588628769 -0.12192082405090332 -0.030690601095557213
		CHANNELS 3 Zrotation Yrotation Xrotation
		JOINT RightLowerLeg
		{
			OFFSET -0.13095621764659882 -0.479042112827301 -0.028491251170635223
			CHANNELS 3 Zrotation Yrotation Xrotation
			JOINT RightFoot
			{
				OFFSET -0.11093854159116745 -0.9092138409614563 -0.0031028389930725098
				CHANNELS 3 Zrotation Yrotation Xrotation
				JOINT RightToe
				{
					OFFSET -0.17304103076457977 -0.9686538334935904 0.1187656968832016
					CHANNELS 3 Zrotation Yrotation Xrotation
					End Site
					{
						OFFSET 0 0 0
					}
				}
			}
		}
	}
	JOINT Spine
	{
		OFFSET 0.004814489278942347 0.08302587270736694 -0.02877936139702797
		CHANNELS 3 Zrotation Yrotation Xrotation
		JOINT Chest
		{
			OFFSET 0.001844796002842486 0.22652465105056763 0.04118312895298004
			CHANNELS 3 Zrotation Yrotation Xrotation
			JOINT UpperChest
			{
				OFFSET 0.00531152356415987 0.28055447340011597 0.07281166315078735
				CHANNELS 3 Zrotation Yrotation Xrotation
				JOINT Neck
				{
					OFFSET 0.02694634348154068 0.48778480291366577 0.16064664721488953
					CHANNELS 3 Zrotation Yrotation Xrotation
					JOINT Head
					{
						OFFSET 0.016176119446754456 0.4493408799171448 0.27264997363090515
						CHANNELS 3 Zrotation Yrotation Xrotation
						End Site
						{
							OFFSET 0 0 0
						}
					}
				}
				JOINT LeftShoulder
				{
					OFFSET 0.08893819898366928 0.40121597051620483 0.11541624367237091
					CHANNELS 3 Zrotation Yrotation Xrotation
					JOINT LeftUpperArm
					{
						OFFSET 0.21740801632404327 0.3908143639564514 0.11951887607574463
						CHANNELS 3 Zrotation Yrotation Xrotation
						JOINT LeftLowerArm
						{
							OFFSET 0.2526492178440094 0.18686991930007935 -0.06421224027872086
							CHANNELS 3 Zrotation Yrotation Xrotation
							JOINT LeftHand
							{
								OFFSET 0.34664613008499146 -0.03960973024368286 -0.03498915582895279
								CHANNELS 3 Zrotation Yrotation Xrotation
								End Site
								{
									OFFSET 0 0 0
								}
							}
						}
					}
				}
				JOINT RightShoulder
				{
					OFFSET -0.06480204313993454 0.4210396409034729 0.11693016439676285
					CHANNELS 3 Zrotation Yrotation Xrotation
					JOINT RightUpperArm
					{
						OFFSET -0.1846415102481842 0.4073328375816345 0.0952528715133667
						CHANNELS 3 Zrotation Yrotation Xrotation
						JOINT RightLowerArm
						{
							OFFSET -0.2047353833913803 0.16816455125808716 -0.05774266645312309
							CHANNELS 3 Zrotation Yrotation Xrotation
							JOINT RightHand
							{
								OFFSET -0.3254889249801636 -0.06552034616470337 -0.05376812070608139
								CHANNELS 3 Zrotation Yrotation Xrotation
								End Site
								{
									OFFSET 0 0 0
								}
							}
						}
					}
				}
			}
		}
	}
}
MOTION
Frames: 7
Frame Time: 0.03333333333333333
0.0 0.9873459935188293 0.0 1.5707963267948963 0.0 0.0 -1.1457637854373002 0.07615631125030187 0.0 -2.080471782242803 0.2162947263191073 0.0 1.5128733733396809 0.3331514913554625 -2.9370468894361076e-17 -1.4079536447052476 -0.02896137168076174 0.0 -1.8376474321806726 0.057307571209256114 -3.475151863785184e-18 1.5626525984561708 -0.17983411247596615 0.0 -1.5758810965291024 -0.01076630500509368 0.0 -1.6922120557199725 0.003387524993224922 -2.168416786603421e-19 1.5518663520421483 -0.2538820684567542 0.0 -1.5177339784373327 -0.1306483980350921 0.0 -1.7475723447442897 -0.12011720904165601 0.0 1.5156101410019918 -0.3176991361213817 0.0 1.3526521221140748 -0.27379548827416644 0.0 1.7235076347743632 -0.26788801254312555 -2.878217596685597e-17 1.534812205060047 -0.5451009714529476 0.0 1.063133070390735 -0.26114777708699144 1.436483812391329e-17 1.9963861238914637 -0.20984960806708353 1.4189063882262612e-17 0.6368388269144994 0.20156129188876193 0.0 2.4539533111754785 0.2145864919964784 0.0 -0.11377215841295844 0.09994951237561689 0.0 -2.942949102917552 0.16054956470303372 0.0
-0.0007077918853610754 0.9874032735824585 -0.0019802660681307316 1.5715131481616764 0.002005525966323418 0.0 -1.1452373578111434 0.07748035088602956 -6.959773929219077e-18 -2.081820113923108 0.21523926504053814 0.0 1.5123066452575635 0.33295622285624726 0.0 -1.4066481550061267 -0.029863051370496274 0.0 -1.8388222689917166 0.05575530341592305 0.0 1.5614612130205419 -0.18077878657320778 0.0 -1.57413592674623 -0.010995010223973756 0.0 -1.6935711111424092 0.0016559732651821868 -1.0842036590625271e-19 1.5513661096809348 -0.255841683341002 2.8689397065964294e-17 -1.5157934164937512 -0.13103120103847954 1.3997781159777524e-17 -1.7481621747625824 -0.12175252088836852 0.0 1.515913346585458 -0.3183056707426659 0.0 1.3522290751139918 -0.2752428084055356 0.0 1.7235714540141132 -0.26821171517929066 -2.878473504887274e-17 1.535251146259059 -0.5467646516959315 0.0 1.062687325557974 -0.2630392733340223 1.4372128999883856e-17 1.9965037148979647 -0.20946097460405366 0.0 0.6314791119206228 0.1986442333937095 -7.078084244625564e-18 2.4555743851554888 0.21028385709470276 0.0 -0.11971740761806467 0.09308739598674842 0.0 -2.9419230975422295 0.15281660781887774 0.0
-0.0013166771968826652 0.9872435927391052 -0.0036855321377515793 1.5721300162975644 0.0037331331053507277 -2.1684194548068176e-19 -1.1453130421310773 0.07835262686573619 0.0 -2.083067104432785 0.2142957385796731 1.4202653563652705e-17 1.510765893704261 0.33214261173928405 -2.936023351380463e-17 -1.4052068276652672 -0.031000967540300906 0.0 -1.840076848860527 0.055445215989710084 0.0 1.559859879853722 -0.18032908651752866 1.4106529080179614e-17 -1.5718957896354206 -0.011264808366375556 8.67416773225744e-19 -1.694605933169232 0.0014207721768839665 2.1684065335363932e-19 1.5505187615274072 -0.25594048985051443 0.0 -1.5137323170158588 -0.13166978886475422 0.0 -1.7486524245346204 -0.12215962971516836 0.0 1.51618407761668 -0.3170598416706938 0.0 1.3519307419079953 -0.2747262319338617 0.0 1.7231996942391055 -0.2666780130770072 -2.8772640845263544e-17 1.5353640257014074 -0.5454417102938325 6.493305301495783e-17 1.0622504353794355 -0.2634445001397685 -1.4373698621917696e-17 1.9962857528384985 -0.2075390358465432 0.0 0.6265149066648453 0.19607021128094848 7.074442077267525e-18 2.457846275529246 0.20655132246481656 -1.4179180348560804e-17 -0.12620461449281045 0.08496732624531522 -8.70502119741586e-19 -2.941144906144127 0.14606480125118848 0.0
-0.0019000150496140122 0.9872883558273315 -0.005060199648141861 1.5727208027524648 0.0051252969201445175 4.336865651660434e-19 -1.145802769491881 0.07844396273051668 0.0 -2.083799372753517 0.21323311234097453 0.0 1.509265913079448 0.3320851801024074 2.9359651966433816e-17 -1.4044938421042397 -0.030873900341711114 1.735550571700812e-18 -1.8409539019817023 0.05550000405166333 0.0 1.558588680562912 -0.1785562886987404 0.0 -1.5705798610511783 -0.010946551850103292 -8.674137072594822e-19 -1.6951768613143146 0.001839849860056919 -1.0842040075260235e-19 1.5495475853156915 -0.25431409883998213 0.0 -1.5127412106412157 -0.1315165167774024 0.0 -1.748952817297624 -0.12180126262358715 0.0 1.5158688359417545 -0.314725867231642 -2.9189317713524123e-17 1.3514971813020578 -0.2727298819843924 0.0 1.7223480468092949 -0.2643631512087268 0.0 1.5343440258421577 -0.5426500471842228 0.0 1.0617524108841219 -0.2619301541414718 0.0 1.9954259153233762 -0.20539539653964534 -1.4175756275885592e-17 0.6228378587456678 0.1946392482564785 7.072439185007416e-18 2.4588672920857597 0.20431720453718039 0.0 -0.13117788448883955 0.07778907230594845 -8.699926344417713e-19 -2.940089660497265 0.14062827457275873 1.752019182646736e-18
-0.002464036224409938 0.9874616861343384 -0.006177733652293682 1.5732916449878018 0.006256074448492521 8.67378711869807e-19 -1.1462398855358766 0.07776294990578814 0.0 -2.0839049443098587 0.21233789135432724 1.419663157850969e-17 1.5083947119791679 0.3327476307663142 0.0 -1.4042211787665764 -0.030162351036083335 0.0 -1.8411542753387 0.055489900160898165 -3.474795250847937e-18 1.5577623331366857 -0.176340760983539 1.4096391597039954e-17 -1.5698431251097096 -0.010349315208442178 0.0 -1.6952637948803553 0.0022902055702831436 -2.1684100316688845e-19 1.548712022959574 -0.25209713800842537 1.4330762410628156e-17 -1.5122902478703462 -0.13081566786808008 0.0 -1.7488902187581885 -0.12132948532223864 0.0 1.5152007911548826 -0.312224452543564 0.0 1.3509585795362005 -0.270459791278169 0.0 1.7213459211643112 -0.26190873221578537 0.0 1.5327471192322426 -0.539768519820691 0.0 1.0610494666947776 -0.25988725442084837 1.43600119924953e-17 1.9944233481983045 -0.2034275231269398 1.4169974400399256e-17 0.6199268967729706 0.19361674244681293 0.0 2.4598801140364523 0.20220753620685916 1.416641982257807e-17 -0.13479876226640997 0.07179952702237014 0.0 -2.938949943079196 0.13552393759611592 0.0
-0.0029969988390803337 0.9876078367233276 -0.0071030776016414165 1.5738309216290816 0.007192047452655448 1.301076256277798e-18 -1.1467203202802205 0.07613398079436484 0.0 -2.083689753459796 0.21185745098356135 1.4195162923504187e-17 1.507690574835425 0.3341751627615699 0.0 -1.4043563576779003 -0.02954072970565136 1.7354806585979143e-18 -1.8408868437403372 0.05532514840481406 6.949526997740655e-18 1.5572169942047083 -0.1737300427721138 0.0 -1.5696340452877715 -0.009858266945773186 0.0 -1.6950347284959966 0.0026274014609064533 0.0 1.5479965748373559 -0.24953824439041594 1.43213699201224e-17 -1.5122795766383856 -0.13012850562718814 0.0 -1.7484783140079816 -0.12086328601830276 0.0 1.5141456863849576 -0.30960974202131286 -2.914116366935799e-17 1.35029752967465 -0.268134162919891 0.0 1.7201435332312107 -0.25925762460454305 0.0 1.5308662036708742 -0.5368443689227287 0.0 1.0601499029656245 -0.2578621569636581 0.0 1.9932440129185836 -0.20132808852239537 -1.4163871625503215e-17 0.6175309362854678 0.19290598085215027 0.0 2.4606218743608004 0.20069484872935872 -1.4162044164550107e-17 -0.13735582291347712 0.06639880120863784 0.0 -2.9381797968330887 0.13058475489686994 1.749619879613807e-18
-0.003476738231256604 0.9876915216445923 -0.007863891310989857 1.574316377129694 0.007961672505925499 -8.673892289767652e-19 -1.1472002116441402 0.07403787286432584 -6.95795558181868e-18 -2.083262376104836 0.2114776469113684 1.4194004436535054e-17 1.5072532368367646 0.3364351816501172 0.0 -1.4044279085740683 -0.02918591763663403 -1.7354625724550117e-18 -1.8403665677352716 0.05532753890263575 -6.949527917806777e-18 1.5569593566294009 -0.17049759831177025 -1.4081969892931196e-17 -1.56964939142946 -0.009498522818260025 0.0 -1.6946330819454878 0.003007406769982124 0.0 1.5475015981733973 -0.24637004623040415 1.430988772936542e-17 -1.5123735465676253 -0.12970862174128572 0.0 -1.74796737696055 -0.12035623959967556 1.3978912284931008e-17 1.513089325783841 -0.3064512290543451 0.0 1.3497907238351743 -0.265363835367751 0.0 1.7189941408566671 -0.2560707521730985 -2.869111694496049e-17 1.5291497253147255 -0.5333186230002123 0.0 1.0594807789085727 -0.25555430402563784 0.0 1.992077758192945 -0.19857728934740582 0.0 0.6151807872491267 0.19293634651513125 0.0 2.461169551704255 0.20074070449532688 0.0 -0.13892261536625522 0.062065741628183346 8.69035030112434e-19 -2.9371934853554094 0.1262351532682251 1.748637528152092e-18
